<svg width="512" height="640" viewBox="0 0 512 640" fill="none" xmlns="http://www.w3.org/2000/svg">
<g clip-path="url(#clip0_8362_1776)">
<path d="M0 0H512V340C512 460 372 560 256 640C140 560 0 460 0 340V0Z" fill="#0C2340"/>
<path d="M205.004 296.704C243.006 270.094 246.079 208.915 211.867 160.055C177.655 111.195 119.114 93.1575 81.1115 119.767C43.1095 146.376 40.037 207.556 74.249 256.416C108.461 305.275 167.002 323.313 205.004 296.704Z" fill="#C65D35"/>
<path d="M203.692 287.856L197.139 292.445C193.52 294.979 192.64 299.967 195.175 303.586L259.415 395.331C261.949 398.951 266.938 399.83 270.557 397.296L277.11 392.707C280.729 390.173 281.609 385.185 279.075 381.566L214.834 289.821C212.3 286.201 207.312 285.322 203.692 287.856Z" fill="#C65D35"/>
<path d="M83.0787 190.263C84.7074 189.122 85.1032 186.878 83.9628 185.249C82.8224 183.62 80.5776 183.224 78.949 184.365C77.3203 185.505 76.9245 187.75 78.0649 189.379C79.2053 191.007 81.4501 191.403 83.0787 190.263Z" fill="#0C2340"/>
<path d="M102.739 176.497C104.368 175.357 104.763 173.112 103.623 171.483C102.483 169.855 100.238 169.459 98.6091 170.599C96.9804 171.74 96.5846 173.984 97.725 175.613C98.8654 177.242 101.11 177.637 102.739 176.497Z" fill="#0C2340"/>
<path d="M122.399 162.731C124.028 161.591 124.423 159.346 123.283 157.718C122.143 156.089 119.898 155.693 118.269 156.834C116.641 157.974 116.245 160.219 117.385 161.847C118.526 163.476 120.77 163.872 122.399 162.731Z" fill="#0C2340"/>
<path d="M142.057 148.966C143.686 147.825 144.082 145.581 142.941 143.952C141.801 142.323 139.556 141.928 137.927 143.068C136.299 144.208 135.903 146.453 137.043 148.082C138.184 149.71 140.429 150.106 142.057 148.966Z" fill="#0C2340"/>
<path d="M99.1393 213.198C100.768 212.058 101.164 209.813 100.023 208.184C98.8829 206.556 96.6382 206.16 95.0095 207.3C93.3808 208.441 92.985 210.686 94.1254 212.314C95.2658 213.943 97.5106 214.339 99.1393 213.198Z" fill="#0C2340"/>
<path d="M118.799 199.433C120.428 198.292 120.824 196.047 119.683 194.419C118.543 192.79 116.298 192.394 114.67 193.535C113.041 194.675 112.645 196.92 113.786 198.549C114.926 200.177 117.171 200.573 118.799 199.433Z" fill="#0C2340"/>
<path d="M138.46 185.667C140.088 184.527 140.484 182.282 139.344 180.653C138.203 179.025 135.958 178.629 134.33 179.769C132.701 180.91 132.305 183.154 133.446 184.783C134.586 186.412 136.831 186.807 138.46 185.667Z" fill="#0C2340"/>
<path d="M158.118 171.901C159.746 170.761 160.142 168.516 159.002 166.888C157.861 165.259 155.617 164.863 153.988 166.003C152.359 167.144 151.964 169.389 153.104 171.017C154.244 172.646 156.489 173.042 158.118 171.901Z" fill="#0C2340"/>
<path d="M115.2 236.136C116.828 234.995 117.224 232.751 116.084 231.122C114.943 229.493 112.699 229.097 111.07 230.238C109.441 231.378 109.046 233.623 110.186 235.252C111.326 236.88 113.571 237.276 115.2 236.136Z" fill="#0C2340"/>
<path d="M134.86 222.368C136.489 221.228 136.884 218.983 135.744 217.354C134.604 215.726 132.359 215.33 130.73 216.47C129.102 217.611 128.706 219.855 129.846 221.484C130.987 223.113 133.231 223.509 134.86 222.368Z" fill="#0C2340"/>
<path d="M154.518 208.603C156.147 207.462 156.543 205.217 155.402 203.589C154.262 201.96 152.017 201.564 150.388 202.705C148.76 203.845 148.364 206.09 149.504 207.718C150.645 209.347 152.89 209.743 154.518 208.603Z" fill="#0C2340"/>
<path d="M174.178 194.837C175.807 193.697 176.203 191.452 175.062 189.823C173.922 188.194 171.677 187.799 170.049 188.939C168.42 190.079 168.024 192.324 169.164 193.953C170.305 195.582 172.55 195.977 174.178 194.837Z" fill="#0C2340"/>
<path d="M131.26 259.071C132.889 257.931 133.285 255.686 132.144 254.057C131.004 252.429 128.759 252.033 127.131 253.173C125.502 254.314 125.106 256.559 126.247 258.187C127.387 259.816 129.632 260.212 131.26 259.071Z" fill="#0C2340"/>
<path d="M150.919 245.306C152.547 244.165 152.943 241.921 151.803 240.292C150.662 238.663 148.417 238.267 146.789 239.408C145.16 240.548 144.764 242.793 145.905 244.422C147.045 246.05 149.29 246.446 150.919 245.306Z" fill="#0C2340"/>
<path d="M170.579 231.54C172.207 230.4 172.603 228.155 171.463 226.526C170.322 224.898 168.078 224.502 166.449 225.642C164.82 226.783 164.424 229.027 165.565 230.656C166.705 232.285 168.95 232.68 170.579 231.54Z" fill="#0C2340"/>
<path d="M190.239 217.774C191.868 216.634 192.263 214.389 191.123 212.761C189.983 211.132 187.738 210.736 186.109 211.877C184.48 213.017 184.085 215.262 185.225 216.89C186.365 218.519 188.61 218.915 190.239 217.774Z" fill="#0C2340"/>
<path d="M147.319 282.007C148.948 280.866 149.343 278.622 148.203 276.993C147.063 275.364 144.818 274.969 143.189 276.109C141.561 277.249 141.165 279.494 142.305 281.123C143.445 282.751 145.69 283.147 147.319 282.007Z" fill="#0C2340"/>
<path d="M166.979 268.241C168.608 267.101 169.004 264.856 167.863 263.227C166.723 261.599 164.478 261.203 162.849 262.343C161.221 263.484 160.825 265.728 161.965 267.357C163.106 268.986 165.35 269.382 166.979 268.241Z" fill="#0C2340"/>
<path d="M186.639 254.476C188.268 253.335 188.664 251.09 187.523 249.462C186.383 247.833 184.138 247.437 182.509 248.578C180.881 249.718 180.485 251.963 181.625 253.592C182.766 255.22 185.011 255.616 186.639 254.476Z" fill="#0C2340"/>
<path d="M206.299 240.71C207.928 239.57 208.324 237.325 207.183 235.696C206.043 234.067 203.798 233.672 202.17 234.812C200.541 235.952 200.145 238.197 201.286 239.826C202.426 241.455 204.671 241.85 206.299 240.71Z" fill="#0C2340"/>
<path d="M306.998 296.703C345 323.313 403.541 305.275 437.753 256.415C471.965 207.555 468.893 146.376 430.891 119.766C392.889 93.157 334.348 111.195 300.136 160.054C265.924 208.914 268.996 270.094 306.998 296.703Z" fill="#C65D35"/>
<path d="M314.864 292.445L308.311 287.856C304.692 285.322 299.703 286.202 297.169 289.821L232.929 381.566C230.394 385.185 231.274 390.173 234.893 392.708L241.446 397.296C245.066 399.83 250.054 398.951 252.588 395.332L316.829 303.587C319.363 299.967 318.483 294.979 314.864 292.445Z" fill="#C65D35"/>
<path d="M369.19 147.963C370.819 149.103 373.064 148.707 374.204 147.079C375.344 145.45 374.949 143.205 373.32 142.065C371.691 140.924 369.447 141.32 368.306 142.949C367.166 144.578 367.562 146.822 369.19 147.963Z" fill="#0C2340"/>
<path d="M388.85 161.73C390.479 162.871 392.724 162.475 393.864 160.846C395.005 159.218 394.609 156.973 392.98 155.832C391.352 154.692 389.107 155.088 387.966 156.717C386.826 158.345 387.222 160.59 388.85 161.73Z" fill="#0C2340"/>
<path d="M408.511 175.496C410.139 176.636 412.384 176.241 413.524 174.612C414.665 172.983 414.269 170.738 412.64 169.598C411.012 168.458 408.767 168.853 407.627 170.482C406.486 172.111 406.882 174.356 408.511 175.496Z" fill="#0C2340"/>
<path d="M428.169 189.262C429.797 190.402 432.042 190.006 433.183 188.378C434.323 186.749 433.927 184.504 432.299 183.364C430.67 182.223 428.425 182.619 427.285 184.248C426.144 185.876 426.54 188.121 428.169 189.262Z" fill="#0C2340"/>
<path d="M353.13 170.9C354.758 172.041 357.003 171.645 358.144 170.016C359.284 168.388 358.888 166.143 357.259 165.002C355.631 163.862 353.386 164.258 352.246 165.886C351.105 167.515 351.501 169.76 353.13 170.9Z" fill="#0C2340"/>
<path d="M372.79 184.666C374.419 185.806 376.663 185.41 377.804 183.782C378.944 182.153 378.548 179.908 376.92 178.768C375.291 177.628 373.046 178.023 371.906 179.652C370.765 181.281 371.161 183.525 372.79 184.666Z" fill="#0C2340"/>
<path d="M392.45 198.432C394.079 199.572 396.323 199.176 397.464 197.547C398.604 195.919 398.208 193.674 396.58 192.534C394.951 191.393 392.706 191.789 391.566 193.418C390.426 195.046 390.821 197.291 392.45 198.432Z" fill="#0C2340"/>
<path d="M412.11 212.197C413.739 213.338 415.984 212.942 417.124 211.313C418.264 209.684 417.869 207.44 416.24 206.299C414.611 205.159 412.367 205.555 411.226 207.183C410.086 208.812 410.482 211.057 412.11 212.197Z" fill="#0C2340"/>
<path d="M337.071 193.836C338.7 194.976 340.945 194.58 342.085 192.952C343.225 191.323 342.83 189.078 341.201 187.938C339.572 186.798 337.327 187.193 336.187 188.822C335.047 190.451 335.442 192.695 337.071 193.836Z" fill="#0C2340"/>
<path d="M356.729 207.601C358.358 208.742 360.603 208.346 361.743 206.717C362.884 205.089 362.488 202.844 360.859 201.704C359.23 200.563 356.986 200.959 355.845 202.588C354.705 204.216 355.101 206.461 356.729 207.601Z" fill="#0C2340"/>
<path d="M376.389 221.367C378.018 222.507 380.263 222.112 381.403 220.483C382.544 218.854 382.148 216.61 380.519 215.469C378.891 214.329 376.646 214.725 375.505 216.353C374.365 217.982 374.761 220.227 376.389 221.367Z" fill="#0C2340"/>
<path d="M396.05 235.133C397.678 236.273 399.923 235.877 401.063 234.249C402.204 232.62 401.808 230.375 400.179 229.235C398.551 228.094 396.306 228.49 395.166 230.119C394.025 231.748 394.421 233.992 396.05 235.133Z" fill="#0C2340"/>
<path d="M321.011 216.771C322.639 217.912 324.884 217.516 326.024 215.887C327.165 214.259 326.769 212.014 325.14 210.873C323.512 209.733 321.267 210.129 320.127 211.758C318.986 213.386 319.382 215.631 321.011 216.771Z" fill="#0C2340"/>
<path d="M340.671 230.539C342.299 231.679 344.544 231.284 345.685 229.655C346.825 228.026 346.429 225.781 344.8 224.641C343.172 223.501 340.927 223.896 339.787 225.525C338.646 227.154 339.042 229.399 340.671 230.539Z" fill="#0C2340"/>
<path d="M360.329 244.305C361.958 245.445 364.202 245.049 365.343 243.42C366.483 241.792 366.087 239.547 364.459 238.407C362.83 237.266 360.585 237.662 359.445 239.291C358.304 240.919 358.7 243.164 360.329 244.305Z" fill="#0C2340"/>
<path d="M379.989 258.07C381.618 259.211 383.862 258.815 385.003 257.186C386.143 255.557 385.748 253.313 384.119 252.172C382.49 251.032 380.245 251.428 379.105 253.056C377.965 254.685 378.36 256.93 379.989 258.07Z" fill="#0C2340"/>
<path d="M304.95 239.709C306.579 240.849 308.823 240.453 309.964 238.825C311.104 237.196 310.708 234.951 309.08 233.811C307.451 232.671 305.206 233.066 304.066 234.695C302.926 236.324 303.321 238.568 304.95 239.709Z" fill="#0C2340"/>
<path d="M324.61 253.474C326.239 254.615 328.484 254.219 329.624 252.59C330.764 250.962 330.369 248.717 328.74 247.577C327.111 246.436 324.867 246.832 323.726 248.461C322.586 250.089 322.982 252.334 324.61 253.474Z" fill="#0C2340"/>
<path d="M344.268 267.24C345.897 268.38 348.142 267.985 349.282 266.356C350.423 264.727 350.027 262.483 348.398 261.342C346.769 260.202 344.525 260.598 343.384 262.226C342.244 263.855 342.64 266.1 344.268 267.24Z" fill="#0C2340"/>
<path d="M363.929 281.006C365.557 282.146 367.802 281.75 368.942 280.122C370.083 278.493 369.687 276.248 368.058 275.108C366.43 273.967 364.185 274.363 363.045 275.992C361.904 277.621 362.3 279.865 363.929 281.006Z" fill="#0C2340"/>
<path d="M258 213C275.673 213 290 198.673 290 181C290 163.327 275.673 149 258 149C240.327 149 226 163.327 226 181C226 198.673 240.327 213 258 213Z" fill="#B6FF00"/>
<path d="M232 199C249.333 185.667 266.667 185.667 284 199" stroke="white" stroke-width="6"/>
<path d="M232 163C249.333 176.333 266.667 176.333 284 163" stroke="white" stroke-width="6"/>
<path d="M462 441H54C45.1634 441 38 448.163 38 457V505C38 513.837 45.1634 521 54 521H462C470.837 521 478 513.837 478 505V457C478 448.163 470.837 441 462 441Z" fill="#C65D35"/>
<path d="M81.494 468.531H72.7837C72.6246 467.404 72.2998 466.403 71.8093 465.528C71.3188 464.64 70.689 463.884 69.9201 463.261C69.1512 462.638 68.2629 462.161 67.2553 461.83C66.261 461.498 65.1805 461.332 64.0138 461.332C61.9059 461.332 60.0697 461.856 58.5053 462.903C56.9409 463.937 55.7279 465.449 54.8661 467.438C54.0044 469.413 53.5735 471.812 53.5735 474.636C53.5735 477.54 54.0044 479.979 54.8661 481.955C55.7411 483.93 56.9608 485.421 58.5252 486.429C60.0896 487.437 61.8993 487.94 63.9542 487.94C65.1076 487.94 66.1748 487.788 67.1559 487.483C68.1502 487.178 69.0318 486.734 69.8008 486.151C70.5697 485.554 71.2061 484.831 71.7099 483.983C72.2269 483.134 72.5849 482.167 72.7837 481.08L81.494 481.119C81.2686 482.989 80.7051 484.792 79.8036 486.528C78.9154 488.252 77.7156 489.796 76.2042 491.162C74.7061 492.514 72.9163 493.588 70.8349 494.384C68.7667 495.166 66.4267 495.557 63.815 495.557C60.1824 495.557 56.9343 494.735 54.0707 493.091C51.2203 491.447 48.9665 489.067 47.3093 485.952C45.6654 482.836 44.8434 479.064 44.8434 474.636C44.8434 470.195 45.6786 466.417 47.3491 463.301C49.0195 460.186 51.2866 457.812 54.1502 456.182C57.0139 454.538 60.2354 453.716 63.815 453.716C66.1748 453.716 68.3623 454.047 70.3775 454.71C72.4059 455.373 74.2023 456.341 75.7667 457.614C77.3311 458.873 78.6038 460.418 79.5849 462.247C80.5792 464.077 81.2156 466.171 81.494 468.531ZM87.6687 495V454.273H96.2795V487.901H113.74V495H87.6687ZM144.598 454.273H153.209V480.722C153.209 483.691 152.5 486.29 151.081 488.517C149.676 490.744 147.707 492.481 145.175 493.727C142.643 494.96 139.693 495.577 136.326 495.577C132.945 495.577 129.989 494.96 127.456 493.727C124.924 492.481 122.955 490.744 121.55 488.517C120.145 486.29 119.442 483.691 119.442 480.722V454.273H128.053V479.986C128.053 481.537 128.391 482.916 129.067 484.122C129.757 485.329 130.724 486.277 131.971 486.966C133.217 487.655 134.668 488 136.326 488C137.996 488 139.448 487.655 140.681 486.966C141.927 486.277 142.888 485.329 143.564 484.122C144.254 482.916 144.598 481.537 144.598 479.986V454.273ZM160.294 495V454.273H176.6C179.597 454.273 182.096 454.717 184.098 455.605C186.1 456.493 187.604 457.726 188.612 459.304C189.619 460.868 190.123 462.671 190.123 464.713C190.123 466.304 189.805 467.703 189.169 468.909C188.532 470.102 187.657 471.083 186.544 471.852C185.443 472.608 184.184 473.145 182.765 473.463V473.861C184.316 473.927 185.768 474.365 187.12 475.173C188.486 475.982 189.593 477.116 190.441 478.574C191.29 480.019 191.714 481.742 191.714 483.744C191.714 485.905 191.177 487.834 190.103 489.531C189.043 491.215 187.472 492.547 185.39 493.528C183.309 494.509 180.743 495 177.694 495H160.294ZM168.904 487.96H175.924C178.324 487.96 180.074 487.503 181.174 486.588C182.275 485.66 182.825 484.427 182.825 482.889C182.825 481.762 182.553 480.768 182.01 479.906C181.466 479.045 180.69 478.368 179.683 477.878C178.689 477.387 177.502 477.142 176.123 477.142H168.904V487.96ZM168.904 471.315H175.288C176.468 471.315 177.515 471.11 178.43 470.699C179.358 470.275 180.087 469.678 180.618 468.909C181.161 468.14 181.433 467.219 181.433 466.145C181.433 464.673 180.909 463.487 179.862 462.585C178.828 461.684 177.356 461.233 175.447 461.233H168.904V471.315ZM224.716 495H210.278V454.273H224.835C228.931 454.273 232.458 455.088 235.414 456.719C238.371 458.336 240.645 460.663 242.235 463.699C243.84 466.735 244.642 470.367 244.642 474.597C244.642 478.839 243.84 482.485 242.235 485.534C240.645 488.583 238.358 490.923 235.375 492.554C232.405 494.185 228.852 495 224.716 495ZM218.889 487.622H224.358C226.903 487.622 229.044 487.171 230.781 486.27C232.531 485.355 233.843 483.943 234.718 482.034C235.607 480.112 236.051 477.633 236.051 474.597C236.051 471.587 235.607 469.128 234.718 467.219C233.843 465.31 232.538 463.904 230.801 463.003C229.064 462.101 226.923 461.651 224.377 461.651H218.889V487.622ZM251.02 495V454.273H278.463V461.372H259.631V471.077H277.051V478.176H259.631V487.901H278.543V495H251.02ZM298.27 495V454.273H314.338C317.427 454.273 320.059 454.863 322.233 456.043C324.408 457.209 326.065 458.833 327.205 460.915C328.358 462.983 328.935 465.369 328.935 468.074C328.935 470.778 328.352 473.165 327.185 475.233C326.018 477.301 324.328 478.912 322.114 480.065C319.913 481.219 317.248 481.795 314.12 481.795H303.878V474.895H312.728C314.385 474.895 315.75 474.61 316.824 474.04C317.911 473.456 318.72 472.654 319.25 471.634C319.794 470.599 320.066 469.413 320.066 468.074C320.066 466.722 319.794 465.542 319.25 464.534C318.72 463.513 317.911 462.724 316.824 462.168C315.737 461.598 314.358 461.312 312.688 461.312H306.881V495H298.27ZM336.845 495H327.618L341.677 454.273H352.774L366.814 495H357.586L347.385 463.58H347.066L336.845 495ZM336.268 478.991H358.064V485.713H336.268V478.991ZM386.153 495H371.716V454.273H386.272C390.369 454.273 393.895 455.088 396.852 456.719C399.808 458.336 402.082 460.663 403.673 463.699C405.277 466.735 406.079 470.367 406.079 474.597C406.079 478.839 405.277 482.485 403.673 485.534C402.082 488.583 399.795 490.923 396.812 492.554C393.842 494.185 390.289 495 386.153 495ZM380.326 487.622H385.795C388.341 487.622 390.482 487.171 392.218 486.27C393.968 485.355 395.281 483.943 396.156 482.034C397.044 480.112 397.488 477.633 397.488 474.597C397.488 471.587 397.044 469.128 396.156 467.219C395.281 465.31 393.975 463.904 392.238 463.003C390.502 462.101 388.36 461.651 385.815 461.651H380.326V487.622ZM412.458 495V454.273H439.901V461.372H421.069V471.077H438.489V478.176H421.069V487.901H439.98V495H412.458ZM446.747 495V454.273H455.358V487.901H472.818V495H446.747Z" fill="white"/>
</g>
<defs>
<clipPath id="clip0_8362_1776">
<rect width="512" height="640" fill="white"/>
</clipPath>
</defs>
</svg>
